<svg xmlns="http://www.w3.org/2000/svg" xmlns:xlink="http://www.w3.org/1999/xlink" width="100" height="100" viewBox="0 0 100 100">
  <defs>
    <clipPath id="clip-calendar-icon">
      <rect width="100" height="100"/>
    </clipPath>
  </defs>
  <g id="calendar-icon" clip-path="url(#clip-calendar-icon)">
    <g id="noun_Calendar_2080608" transform="translate(0.5 0.1)">
      <g id="Group_976" data-name="Group 976">
        <path id="Path_671" data-name="Path 671" d="M86.3,3.9H13.7A11.182,11.182,0,0,0,2.5,15.1V84.9A11.182,11.182,0,0,0,13.7,96.1H86.3A11.182,11.182,0,0,0,97.5,84.9V15.1A11.182,11.182,0,0,0,86.3,3.9ZM13.7,9.7H24v5.8A6.086,6.086,0,0,0,20.7,21a6.2,6.2,0,1,0,12.4,0,6.4,6.4,0,0,0-3.3-5.5V9.7H47.1v5.8A6.086,6.086,0,0,0,43.8,21a6.2,6.2,0,1,0,9.1-5.5V9.7H70.2v5.8A6.086,6.086,0,0,0,66.9,21a6.2,6.2,0,1,0,12.4,0A6.4,6.4,0,0,0,76,15.5V9.7H86.3a5.378,5.378,0,0,1,5.4,5.4V31.6H8.3V15.1A5.378,5.378,0,0,1,13.7,9.7ZM86.3,90.3H13.7a5.378,5.378,0,0,1-5.4-5.4V37.4H91.7V84.9A5.378,5.378,0,0,1,86.3,90.3Z" fill="#526484"/>
        <path id="Path_672" data-name="Path 672" d="M32.4,47.9H21.5A2.476,2.476,0,0,0,19,50.4v6.4a2.476,2.476,0,0,0,2.5,2.5H32.4a2.476,2.476,0,0,0,2.5-2.5V50.4A2.476,2.476,0,0,0,32.4,47.9Z" fill="#526484"/>
        <path id="Path_673" data-name="Path 673" d="M55.4,47.9H44.6a2.476,2.476,0,0,0-2.5,2.5v6.4a2.476,2.476,0,0,0,2.5,2.5H55.5A2.476,2.476,0,0,0,58,56.8V50.4A2.562,2.562,0,0,0,55.4,47.9Z" fill="#526484"/>
        <path id="Path_674" data-name="Path 674" d="M78.5,47.9H67.6a2.476,2.476,0,0,0-2.5,2.5v6.4a2.476,2.476,0,0,0,2.5,2.5H78.5A2.476,2.476,0,0,0,81,56.8V50.4A2.476,2.476,0,0,0,78.5,47.9Z" fill="#526484"/>
        <path id="Path_675" data-name="Path 675" d="M32.4,68.2H21.5A2.476,2.476,0,0,0,19,70.7v6.4a2.476,2.476,0,0,0,2.5,2.5H32.4a2.476,2.476,0,0,0,2.5-2.5V70.7A2.54,2.54,0,0,0,32.4,68.2Z" fill="#526484"/>
        <path id="Path_676" data-name="Path 676" d="M55.4,68.2H44.6a2.476,2.476,0,0,0-2.5,2.5v6.4a2.476,2.476,0,0,0,2.5,2.5H55.5A2.476,2.476,0,0,0,58,77.1V70.7A2.63,2.63,0,0,0,55.4,68.2Z" fill="#526484"/>
        <path id="Path_677" data-name="Path 677" d="M78.5,68.2H67.6a2.476,2.476,0,0,0-2.5,2.5v6.4a2.476,2.476,0,0,0,2.5,2.5H78.5A2.476,2.476,0,0,0,81,77.1V70.7A2.54,2.54,0,0,0,78.5,68.2Z" fill="#526484"/>
      </g>
    </g>
  </g>
</svg>
