<?xml version="1.0" encoding="utf-8"?>
<!-- Generator: Adobe Illustrator 16.0.0, SVG Export Plug-In . SVG Version: 6.00 Build 0)  -->
<!DOCTYPE svg PUBLIC "-//W3C//DTD SVG 1.1//EN" "http://www.w3.org/Graphics/SVG/1.1/DTD/svg11.dtd">
<svg version="1.1" id="Layer_1" xmlns="http://www.w3.org/2000/svg" xmlns:xlink="http://www.w3.org/1999/xlink" x="0px" y="0px"
	 width="50px" height="50px" viewBox="0 0 50 50" enable-background="new 0 0 50 50" xml:space="preserve">
<path fill="#38B34C" d="M19.695,2.339c-1.65,0.231-3.288,0.643-4.877,1.241C3.009,8.02-2.972,21.255,1.469,33.064
	c4.44,11.808,17.657,17.79,29.466,13.35c11.81-4.44,17.793-17.657,13.352-29.466c-0.243-0.941-1.203-1.506-2.146-1.262
	c-0.94,0.244-1.506,1.204-1.263,2.146c0.033,0.124,0.079,0.245,0.137,0.358c3.771,10.027-1.293,21.162-11.323,24.935
	C19.664,46.896,8.512,41.851,4.741,31.821C0.971,21.794,6.033,10.641,16.061,6.87c5.379-2.022,11.371-1.553,16.371,1.284
	c0.789,0.566,1.888,0.385,2.455-0.405c0.567-0.791,0.385-1.891-0.405-2.457c-0.098-0.07-0.202-0.131-0.314-0.18
	C29.739,2.6,24.647,1.645,19.695,2.339L19.695,2.339z"/>
<path fill="#38B34C" d="M11.941,24.23c0.509-1.87,2.225-3.99,5.191-3.368c2.346,0.675,4.275,2.765,5.815,6.179
	C31.58,15.048,39.004,6.795,48.806,3.699c0.873-0.205,1.335-0.156,0.696,0.567c-10.129,8.187-19.288,20.059-26.406,34.82
	c-0.166,0.346-0.761,0.318-0.959-0.057c-2.175-3.948-3.721-7.798-5.897-11.745C15.27,25.241,14.041,23.772,11.941,24.23
	L11.941,24.23z"/>
</svg>
